<svg xmlns="http://www.w3.org/2000/svg" xmlns:xlink="http://www.w3.org/1999/xlink" fill="none" version="1.1" width="32" height="32" viewBox="0 0 32 32"><defs><clipPath id="master_svg0_1_713"><rect x="0" y="0" width="32" height="32" rx="0"/></clipPath></defs><g clip-path="url(#master_svg0_1_713)"><g transform="matrix(-1,0,0,-1,48,37.9998779296875)"><path d="M24.45875767,18.40679776484375L24.45884946,18.40667909484375L31.0292077,23.48844096484375Q31.3589516,23.74347736484375,31.7757702,23.74954226484375Q32.1925879,23.75560716484375,32.5296125,23.51027296484375L39.558605,18.39357972484375L39.558694,18.39370137484375Q39.75598,18.25008893484375,40,18.25008893484375Q40.073853,18.25008893484375,40.146288,18.26449716484375Q40.218721,18.27890527484375,40.286953,18.30716788484375Q40.355186,18.33543050484375,40.416594,18.37646150484375Q40.478001,18.41749244484375,40.530224000000004,18.46971493484375Q40.582447,18.52193745484375,40.623476,18.58334463484375Q40.664507,18.64475178484375,40.692769999999996,18.71298378484375Q40.721030999999996,18.78121578484375,40.735439,18.85365048484375Q40.749847,18.92608518184375,40.749849,18.99993896484375Q40.749849,19.08860247584375,40.729172,19.17482094484375Q40.708494,19.26103940484375,40.668278,19.34005761484375Q40.628063,19.41907581484375,40.570526,19.48653560484375Q40.512989000000005,19.55399543484375,40.441305,19.60617625484375L40.441395,19.60629820484375L33.4124002,24.72299196484375Q32.6709461,25.262726764843748,31.7539458,25.24938346484375Q30.8369451,25.23603966484375,30.1115093,24.67496056484375L23.54115054,19.59319883484375L23.54124233,19.59308016484375Q23.47329497,19.54052716484375,23.41899228,19.47396978484375Q23.36468971,19.40741240484375,23.32684529,19.33029910484375Q23.28900087,19.25318580484375,23.26957536,19.16951195484375Q23.25014997,19.08583810184375,23.25014997,18.99993896484375Q23.25014997,18.92608518184375,23.2645582,18.85365048484375Q23.27896631,18.78121578484375,23.30722892,18.71298378484375Q23.33549154,18.64475178484375,23.37652254,18.58334463484375Q23.41755348,18.52193745484375,23.46977597,18.46971493484375Q23.52199849,18.41749244484375,23.58340567,18.37646150484375Q23.64481282,18.33543050484375,23.71304482,18.30716788484375Q23.78127682,18.27890527484375,23.85371152,18.26449716484375Q23.926146217,18.25008893484375,24,18.25008893484375Q24.12453932,18.25008893484375,24.24239238,18.29034686484375Q24.36024544,18.33060467484375,24.45875767,18.40679776484375Z" fill-rule="evenodd" fill="#8E8E8E" fill-opacity="1"/></g></g></svg>