<svg xmlns="http://www.w3.org/2000/svg" xmlns:xlink="http://www.w3.org/1999/xlink" fill="none" version="1.1" width="32" height="32" viewBox="0 0 32 32"><defs><clipPath id="master_svg0_1_696"><rect x="0" y="0" width="32" height="32" rx="0"/></clipPath></defs><g clip-path="url(#master_svg0_1_696)"><g><path d="M8.45875767,12.4068588L8.45884946,12.40674013L15.0292077,17.488502Q15.358951600000001,17.7435384,15.7757702,17.7496033Q16.1925879,17.7556682,16.5296125,17.510334L23.558605,12.39364076L23.558694,12.39376241Q23.75598,12.25014997,24,12.25014997Q24.073853,12.25014997,24.146288,12.2645582Q24.218721,12.27896631,24.286953,12.30722892Q24.355186,12.33549154,24.416594,12.37652254Q24.478001,12.41755348,24.530224,12.46977597Q24.582447,12.52199849,24.623476,12.58340567Q24.664507,12.64481282,24.69277,12.71304482Q24.721031,12.78127682,24.735439,12.85371152Q24.749847,12.926146217,24.749849,13Q24.749849,13.088663511,24.729172,13.17488198Q24.708494,13.26110044,24.668278,13.34011865Q24.628063,13.41913685,24.570526,13.48659664Q24.512989,13.55405647,24.441305,13.60623729L24.441395,13.60635924L17.4124002,18.723053Q16.670946100000002,19.262787799999998,15.7539458,19.2494445Q14.836945100000001,19.2361007,14.1115093,18.6750216L7.54115054,13.59325987L7.54124233,13.5931412Q7.4732949699999995,13.5405882,7.41899228,13.47403082Q7.36468971,13.40747344,7.32684529,13.33036014Q7.28900087,13.25324684,7.26957536,13.16957299Q7.25014997,13.085899137,7.25014997,13Q7.25014997,12.926146217,7.2645582,12.85371152Q7.27896631,12.78127682,7.30722892,12.71304482Q7.33549154,12.64481282,7.37652254,12.58340567Q7.4175534800000005,12.52199849,7.46977597,12.46977597Q7.52199849,12.41755348,7.58340567,12.37652254Q7.64481282,12.33549154,7.71304482,12.30722892Q7.78127682,12.27896631,7.85371152,12.2645582Q7.926146217,12.25014997,8,12.25014997Q8.12453932,12.25014997,8.24239238,12.2904079Q8.36024544,12.33066571,8.45875767,12.4068588Z" fill-rule="evenodd" fill="#8E8E8E" fill-opacity="1"/></g></g></svg>