<svg xmlns="http://www.w3.org/2000/svg" xmlns:xlink="http://www.w3.org/1999/xlink" fill="none" version="1.1" width="16" height="16" viewBox="0 0 16 16"><defs><clipPath id="master_svg0_3_126"><rect x="0" y="0" width="16" height="16" rx="0"/></clipPath></defs><g clip-path="url(#master_svg0_3_126)"><g><g><g><ellipse cx="8" cy="5.647058963775635" rx="4" ry="5.647058963775635" fill="#D8D8D8" fill-opacity="0"/><path d="M8,11.294118Q8.0981941,11.294117,8.1962705,11.287315Q8.2943468,11.280514,8.3920684,11.266926Q8.48979,11.253338,8.586921199999999,11.232997Q8.684052900000001,11.212656,8.7803607,11.185611Q8.876668500000001,11.158566,8.97192,11.124883Q9.0671721,11.091198,9.1611385,11.050957Q9.2551041,11.010715,9.3475585,10.964013Q9.4400129,10.917311,9.530733099999999,10.86426Q9.6214523,10.81121,9.7102194,10.751939Q9.7989864,10.692669,9.8855863,10.62732Q9.9721861,10.561972,10.0564098,10.490702Q10.140633600000001,10.419434,10.222279499999999,10.342416Q10.3039255,10.265398,10.382796299999999,10.182818Q10.4616671,10.100239,10.5375729,10.012294Q10.6134777,9.9243498,10.686235,9.8312531Q10.7589922,9.7381563,10.8284264,9.640132Q10.8978605,9.5421076,10.9638038,9.4393921Q11.029747,9.3366756,11.092041,9.2295151Q11.154335,9.1223545,11.2128291,9.0110073Q11.271323200000001,8.8996601,11.3258772,8.7843952Q11.3804312,8.6691313,11.4309134,8.5502262Q11.4813957,8.4313221,11.5276847,8.309063Q11.573972699999999,8.1868038,11.6159568,8.0614862Q11.657939899999999,7.9361687,11.695517500000001,7.808094Q11.733095200000001,7.6800189,11.7661757,7.5494952Q11.7992563,7.4189715,11.827761200000001,7.2863135Q11.8562651,7.1536551,11.8801246,7.0191817Q11.903984099999999,6.8847089,11.923140499999999,6.748745Q11.942297499999999,6.6127815,11.9567056,6.4756541Q11.971114199999999,6.3385277,11.980739100000001,6.2005677Q11.9903636,6.0626078,11.995182,5.9241467Q12,5.7856865,12,5.647059Q12,5.5084314,11.9951816,5.3699708Q11.9903636,5.2315102,11.980739100000001,5.0935507Q11.971114199999999,4.9555902,11.956706,4.8184628Q11.942297499999999,4.6813354,11.923140499999999,4.545372Q11.9039836,4.4094081,11.8801241,4.2749352Q11.8562651,4.1404619,11.827760699999999,4.0078039Q11.7992563,3.8751457,11.7661753,3.7446218Q11.7330942,3.6140978,11.6955171,3.4860227Q11.657939899999999,3.3579476,11.6159563,3.2326298Q11.573972699999999,3.1073122,11.5276842,2.9850535Q11.4813957,2.8627949,11.4309134,2.7438903Q11.3804312,2.6249852,11.3258772,2.5097208Q11.271323200000001,2.3944561,11.2128291,2.2831094Q11.154335,2.1717629,11.092041,2.0646026Q11.029747,1.957442,10.9638038,1.8547258Q10.8978605,1.7520096,10.8284264,1.6539851Q10.7589922,1.5559607,10.686235400000001,1.4628642Q10.6134777,1.3697675,10.5375729,1.2818232Q10.4616671,1.1938788,10.382796299999999,1.1112984Q10.3039255,1.0287181,10.222279499999999,0.95170087Q10.140633600000001,0.87468356,10.0564098,0.80341482Q9.9721861,0.73214602,9.885586700000001,0.66679746Q9.7989864,0.60144889,9.7102194,0.54217803Q9.6214523,0.48290712,9.530733099999999,0.42985669Q9.4400129,0.37680626,9.347559,0.33010405Q9.2551041,0.28340185,9.1611385,0.24316044Q9.0671721,0.20291899,8.97192,0.16923526Q8.876668500000001,0.13555151,8.7803607,0.10850663Q8.684052900000001,0.08146175,8.586921700000001,0.061120875Q8.48979,0.04078,8.3920689,0.027192129Q8.2943468,0.013604257,8.1962705,0.0068021286Q8.0981941,0,8,0Q7.901805400000001,0,7.8037293000000005,0.0068021286Q7.7056532,0.013604257,7.607931600000001,0.027192129Q7.5102096,0.04078,7.4130778,0.061120875Q7.3159461,0.08146175,7.2196386,0.10850663Q7.1233308,0.13555151,7.028079,0.16923524Q6.9328275,0.20291898,6.8388612,0.24316043Q6.7448947,0.28340185,6.6524403,0.33010405Q6.5599856,0.37680626,6.4692659,0.42985669Q6.378546,0.48290712,6.2897792,0.54217803Q6.2010126,0.60144889,6.1144128,0.66679746Q6.027813,0.73214602,5.9435889,0.80341476Q5.8593646,0.87468356,5.7777189,0.95170087Q5.6960732,1.0287181,5.6172028,1.1112984Q5.5383322,1.1938789,5.4624269000000005,1.2818233Q5.3865216,1.3697677,5.3137642,1.4628642Q5.2410069,1.5559607,5.1715728,1.6539851Q5.1021388000000005,1.7520096,5.0361955,1.8547258Q4.9702521,1.957442,4.90795821,2.0646026Q4.8456642599999995,2.1717629,4.78716981,2.2831097Q4.72867543,2.3944561,4.6741215,2.5097208Q4.6195675099999995,2.6249852,4.56908548,2.7438903Q4.51860344,2.8627949,4.47231492,2.9850535Q4.42602634,3.1073122,4.38404277,3.2326298Q4.34205922,3.3579473,4.30448183,3.4860225Q4.26690444,3.6140976,4.23382372,3.7446213Q4.20074299,3.8751454,4.17223865,4.0078039Q4.14373429,4.1404619,4.11987498,4.2749348Q4.096015662,4.4094076,4.076858871,4.545372Q4.057702076,4.6813354,4.043293957,4.8184628Q4.028885834,4.9555902,4.019261092,5.0935507Q4.009636349,5.2315102,4.0048181745,5.3699708Q4,5.5084314,4,5.647059Q4,5.7856865,4.0048181745,5.9241467Q4.009636349,6.0626078,4.019261092,6.2005677Q4.028885834,6.3385277,4.043293953,6.4756541Q4.057702076,6.6127815,4.076858871,6.748745Q4.096015662,6.8847089,4.11987497,7.0191822Q4.14373429,7.1536551,4.17223865,7.2863135Q4.20074299,7.4189715,4.23382372,7.5494952Q4.26690444,7.6800189,4.30448183,7.808094Q4.34205922,7.9361687,4.38404277,8.0614872Q4.42602631,8.1868038,4.47231489,8.309063Q4.51860344,8.4313221,4.56908548,8.5502262Q4.6195675099999995,8.6691313,4.6741215,8.7843952Q4.72867543,8.8996601,4.78716981,9.0110073Q4.8456642,9.1223545,4.90795815,9.2295151Q4.97025204,9.3366756,5.0361954,9.4393921Q5.1021388000000005,9.5421076,5.1715728,9.640132Q5.2410069,9.7381563,5.3137642,9.8312531Q5.3865216,9.9243498,5.4624269000000005,10.012294Q5.5383322,10.100239,5.6172028,10.182818Q5.6960733,10.265398,5.777719,10.342416Q5.8593647,10.419434,5.9435889,10.490702Q6.027813,10.561971,6.1144128,10.627319Q6.2010126,10.692668,6.2897792,10.751939Q6.378546,10.81121,6.4692659,10.86426Q6.5599856,10.917311,6.6524401,10.964013Q6.7448947,11.010715,6.8388612,11.050957Q6.9328275,11.091198,7.028079,11.124882Q7.1233308,11.158566,7.2196386,11.18561Q7.3159461,11.212654,7.4130778,11.232996Q7.5102096,11.253337,7.607931600000001,11.266926Q7.7056532,11.280514,7.8037295,11.287315Q7.901805400000001,11.294117,8,11.294118ZM9.6043906,2.5210114Q10.5,3.7854009,10.5,5.647059Q10.5,7.5087156,9.6043906,8.7731056Q8.8811736,9.7941179,8,9.7941179Q7.1188264,9.7941179,6.3956094,8.7731056Q5.5,7.5087161,5.5,5.6470594Q5.5,3.7854009,6.3956094,2.5210111Q7.1188254,1.5,8,1.5Q8.881174099999999,1.5,9.6043906,2.5210114Z" fill-rule="evenodd" fill="#8E8E8E" fill-opacity="1"/></g><g><path d="M8,13.676471198571777Q11.2409,13.676471198571777,14.39103,9.723366948571778L13.608971,9.100163248571777Q10.7591,12.676471498571777,8,12.676470998571777Q5.2409,12.676470998571777,2.39102978,9.100163218571778L1.60897022,9.723366978571777Q4.7591002,13.676471198571777,8,13.676471198571777Z" fill-rule="evenodd" fill="#8E8E8E" fill-opacity="1"/></g><g><path d="M7.5,16.00000025653076L7.5,13.176470756530762L8.5,13.176470756530762L8.5,16.00000025653076L7.5,16.00000025653076Z" fill-rule="evenodd" fill="#8E8E8E" fill-opacity="1"/></g><g><path d="M13,16.5L3,16.5L3,15.5L13,15.5L13,16.5Z" fill-rule="evenodd" fill="#8E8E8E" fill-opacity="1"/></g></g><g transform="matrix(0.7281999588012695,0.6853647828102112,-0.7282000184059143,0.6853647232055664,2.5996943030778112,-0.48234758554940527)"><line x1="2" y1="2.3235294818878174" x2="19.478607177734375" y2="2.3235294818878174" fill-opacity="0" stroke-opacity="1" stroke="#C50808" fill="none" stroke-width="1"/></g></g></g></svg>