<svg xmlns="http://www.w3.org/2000/svg" xmlns:xlink="http://www.w3.org/1999/xlink" fill="none" version="1.1" width="32" height="32" viewBox="0 0 32 32"><defs><clipPath id="master_svg0_3_126"><rect x="0" y="0" width="32" height="32" rx="0"/></clipPath></defs><g clip-path="url(#master_svg0_3_126)"><g><g><ellipse cx="16" cy="13" rx="4" ry="6" fill="#D8D8D8" fill-opacity="0"/><path d="M16,19Q16.0981941,19,16.1962705,18.992772000000002Q16.2943468,18.985545000000002,16.3920684,18.971108Q16.48979,18.956671,16.5869212,18.935059000000003Q16.6840529,18.913446,16.7803607,18.88471Q16.8766685,18.855975,16.97192,18.820187Q17.0671721,18.784397,17.1611385,18.741642Q17.2551041,18.698885,17.347558499999998,18.649262999999998Q17.4400129,18.599642,17.5307331,18.543276Q17.6214523,18.48691,17.7102194,18.423935Q17.7989864,18.36096,17.8855863,18.291527000000002Q17.972186100000002,18.222094,18.0564098,18.146369999999997Q18.1406336,18.070647,18.2222795,17.988816Q18.3039255,17.906985,18.3827963,17.819243999999998Q18.4616671,17.731503,18.5375729,17.638061999999998Q18.6134777,17.544622,18.686235,17.445707Q18.7589922,17.346792,18.828426399999998,17.24264Q18.8978605,17.138489999999997,18.9638038,17.029353999999998Q19.029747,16.9202185,19.092041000000002,16.806361199999998Q19.154335,16.692503000000002,19.2128291,16.5741968Q19.2713232,16.455890699999998,19.3258772,16.333421700000002Q19.3804312,16.2109528,19.4309134,16.084616699999998Q19.4813957,15.9582806,19.527684700000002,15.8283815Q19.5739727,15.6984806,19.6159568,15.5653305Q19.6579399,15.4321804,19.6955175,15.2961006Q19.7330952,15.1600208,19.766175699999998,15.0213394Q19.7992563,14.8826575,19.8277612,14.7417088Q19.8562651,14.600759,19.880124600000002,14.457881Q19.9039841,14.3150034,19.9231405,14.170541799999999Q19.9422975,14.0260801,19.9567056,13.880383Q19.9711142,13.734685899999999,19.9807391,13.5881033Q19.990363600000002,13.4415207,19.995182,13.294405900000001Q20,13.1472917,20,13Q20,12.8527079,19.995181600000002,12.7055931Q19.990363600000002,12.5584793,19.9807391,12.4118967Q19.9711142,12.265314100000001,19.956706,12.1196165Q19.9422975,11.973918900000001,19.9231405,11.8294573Q19.9039836,11.6849957,19.8801241,11.5421181Q19.8562651,11.399241,19.8277607,11.258291700000001Q19.7992563,11.117342,19.7661753,10.9786606Q19.7330942,10.8399789,19.6955171,10.703899100000001Q19.6579399,10.5678196,19.6159563,10.4346693Q19.5739727,10.3015192,19.5276842,10.1716194Q19.4813957,10.0417197,19.4309134,9.9153833Q19.3804312,9.789047,19.3258772,9.6665783Q19.2713232,9.544109800000001,19.2128291,9.4258039Q19.154335,9.307497999999999,19.092041000000002,9.1936402Q19.029747,9.079782,18.9638038,8.9706461Q18.8978605,8.861510299999999,18.828426399999998,8.757359300000001Q18.7589922,8.6532083,18.6862354,8.5542933Q18.6134777,8.4553782,18.5375729,8.3619373Q18.4616671,8.2684963,18.3827963,8.1807548Q18.3039255,8.093013,18.2222795,8.0111822Q18.1406336,7.92935133,18.0564098,7.85362822Q17.972186100000002,7.77790523,17.8855867,7.70847237Q17.7989864,7.63903952,17.7102194,7.57606423Q17.6214523,7.51308888,17.5307331,7.45672277Q17.4400129,7.40035665,17.347559,7.3507356Q17.2551041,7.3011145,17.1611385,7.25835797Q17.0671721,7.21560144,16.97192,7.17981246Q16.8766685,7.14402349,16.7803607,7.1152883Q16.6840529,7.086553112,16.5869217,7.064940937Q16.48979,7.043328751,16.392068899999998,7.028891638Q16.2943468,7.014454524,16.1962705,7.007227262Q16.0981941,7,16,7Q15.9018054,7,15.8037293,7.007227262Q15.7056532,7.014454524,15.6079316,7.028891638Q15.5102096,7.043328751,15.4130778,7.064940929Q15.3159461,7.086553112,15.2196386,7.1152883Q15.1233308,7.14402349,15.028079,7.17981246Q14.9328275,7.21560144,14.8388612,7.25835797Q14.7448947,7.3011145,14.6524403,7.35073557Q14.559985600000001,7.40035665,14.4692659,7.45672277Q14.378546,7.51308888,14.2897792,7.57606423Q14.2010126,7.63903958,14.1144128,7.7084724300000005Q14.027813,7.77790529,13.9435889,7.8536284Q13.8593646,7.92935145,13.7777189,8.0111823Q13.6960732,8.093013299999999,13.6172028,8.1807548Q13.5383322,8.2684964,13.4624269,8.3619373Q13.3865216,8.4553782,13.3137642,8.5542932Q13.2410069,8.6532083,13.1715728,8.757359300000001Q13.1021388,8.861510299999999,13.0361955,8.9706461Q12.9702521,9.079782,12.90795821,9.1936402Q12.84566426,9.307497999999999,12.78716981,9.4258039Q12.72867543,9.544109800000001,12.6741215,9.6665783Q12.61956751,9.789047,12.56908548,9.9153833Q12.51860344,10.0417199,12.47231492,10.1716199Q12.42602634,10.3015194,12.38404277,10.4346695Q12.34205922,10.5678196,12.30448183,10.703899100000001Q12.26690444,10.8399789,12.23382372,10.9786606Q12.20074299,11.117342,12.17223865,11.258291700000001Q12.14373429,11.399241,12.11987498,11.5421185Q12.096015662,11.6849961,12.076858871,11.8294578Q12.057702076,11.973918900000001,12.043293957,12.1196165Q12.028885834,12.265314100000001,12.019261092,12.4118967Q12.009636349,12.5584793,12.0048181745,12.7055931Q12,12.8527079,12,13Q12,13.1472917,12.0048181745,13.2944064Q12.009636349,13.4415207,12.019261092,13.5881033Q12.028885834,13.734685899999999,12.043293953,13.8803825Q12.057702076,14.0260801,12.076858871,14.170541799999999Q12.096015662,14.3150034,12.11987497,14.4578815Q12.14373429,14.600758599999999,12.17223865,14.741708299999999Q12.20074299,14.8826571,12.23382372,15.0213385Q12.26690444,15.1600199,12.30448183,15.2960997Q12.34205922,15.4321795,12.38404277,15.5653305Q12.42602631,15.6984806,12.47231489,15.8283806Q12.51860344,15.9582806,12.56908548,16.084616699999998Q12.61956751,16.2109528,12.6741215,16.3334208Q12.72867543,16.4558897,12.78716981,16.574194900000002Q12.8456642,16.6925011,12.90795815,16.8063593Q12.97025204,16.9202166,13.0361954,17.029352Q13.1021388,17.138489,13.1715728,17.24264Q13.2410069,17.34679,13.3137642,17.445706Q13.3865216,17.544621,13.4624269,17.638061999999998Q13.5383322,17.731503,13.6172028,17.819243Q13.6960733,17.906985,13.777719,17.988816Q13.8593647,18.070647,13.9435889,18.146371000000002Q14.027813,18.222094,14.1144128,18.291527000000002Q14.2010126,18.36096,14.2897792,18.423935Q14.378546,18.48691,14.4692659,18.543276Q14.559985600000001,18.599642,14.6524401,18.649262999999998Q14.7448947,18.698885,14.8388612,18.741642Q14.9328275,18.784397,15.028079,18.820187Q15.1233308,18.855975,15.2196386,18.88471Q15.3159461,18.913446,15.4130778,18.935057999999998Q15.5102096,18.956671,15.6079316,18.971108Q15.7056532,18.985545000000002,15.8037295,18.992773Q15.9018054,19,16,19ZM17.5803518,9.5894096Q18.5,10.9688818,18.5,13Q18.5,15.0311184,17.5803518,16.4105902Q16.8540783,17.5,16,17.5Q15.1459212,17.5,14.419648200000001,16.4105902Q13.5,15.0311184,13.5,13Q13.5,10.9688816,14.419648200000001,9.5894096Q15.1459212,8.5,16,8.5Q16.8540788,8.5,17.5803518,9.5894096Z" fill-rule="evenodd" fill="#8E8E8E" fill-opacity="1"/></g><g><path d="M16,21.5Q19.25,21.5,22.4,17.30000001L21.6,16.69999999Q18.75,20.5,16,20.5Q13.25,20.5,10.40000001,16.69999999L9.59999999,17.30000001Q12.7499995,21.5,16,21.5Z" fill-rule="evenodd" fill="#8E8E8E" fill-opacity="1"/></g><g><path d="M15.5,24L15.5,21L16.5,21L16.5,24L15.5,24Z" fill-rule="evenodd" fill="#8E8E8E" fill-opacity="1"/></g><g><path d="M21,24.5L11,24.5L11,23.5L21,23.5L21,24.5Z" fill-rule="evenodd" fill="#8E8E8E" fill-opacity="1"/></g></g><g transform="matrix(0.7071067690849304,0.7071068286895752,-0.7071067690849304,0.7071067690849304,9.41421353816986,-2.7279223203659058)"><line x1="8" y1="9.5" x2="29" y2="9.5" fill-opacity="0" stroke-opacity="1" stroke="#C50808" fill="none" stroke-width="1"/></g></g></svg>