<svg xmlns="http://www.w3.org/2000/svg" xmlns:xlink="http://www.w3.org/1999/xlink" fill="none" version="1.1" width="24" height="24" viewBox="0 0 24 24"><defs><clipPath id="master_svg0_3_126"><rect x="0" y="0" width="24" height="24" rx="0"/></clipPath></defs><g clip-path="url(#master_svg0_3_126)"><g><g><g><ellipse cx="12" cy="9" rx="4" ry="6" fill="#D8D8D8" fill-opacity="0"/><path d="M12,15Q12.0981941,15,12.1962705,14.992772Q12.2943468,14.985545,12.3920684,14.971108Q12.48979,14.956671,12.586921199999999,14.935059Q12.684052900000001,14.913446,12.7803607,14.88471Q12.876668500000001,14.855975,12.97192,14.820187Q13.0671721,14.784397,13.1611385,14.741642Q13.2551041,14.698885,13.3475585,14.649263Q13.4400129,14.599642,13.530733099999999,14.543276Q13.6214523,14.48691,13.7102194,14.423935Q13.7989864,14.36096,13.8855863,14.291527Q13.9721861,14.222094,14.0564098,14.14637Q14.140633600000001,14.070647,14.222279499999999,13.988816Q14.3039255,13.906985,14.382796299999999,13.819244Q14.4616671,13.731503,14.5375729,13.638062Q14.6134777,13.544622,14.686235,13.445707Q14.7589922,13.346792,14.8284264,13.24264Q14.8978605,13.13849,14.9638038,13.029354Q15.029747,12.9202185,15.092041,12.8063612Q15.154335,12.692503,15.2128291,12.5741968Q15.271323200000001,12.4558907,15.3258772,12.3334217Q15.3804312,12.2109528,15.4309134,12.0846167Q15.4813957,11.9582806,15.5276847,11.8283815Q15.573972699999999,11.6984806,15.6159568,11.5653305Q15.657939899999999,11.4321804,15.695517500000001,11.2961006Q15.733095200000001,11.1600208,15.7661757,11.0213394Q15.7992563,10.8826575,15.827761200000001,10.7417088Q15.8562651,10.600759,15.8801246,10.457881Q15.903984099999999,10.3150034,15.923140499999999,10.170541799999999Q15.942297499999999,10.0260801,15.9567056,9.880383Q15.971114199999999,9.734685899999999,15.980739100000001,9.5881033Q15.9903636,9.4415207,15.995182,9.294405900000001Q16,9.1472917,16,9Q16,8.8527079,15.9951816,8.7055931Q15.9903636,8.5584793,15.980739100000001,8.4118967Q15.971114199999999,8.265314100000001,15.956706,8.1196165Q15.942297499999999,7.9739189,15.923140499999999,7.8294573Q15.9039836,7.6849957,15.8801241,7.5421181Q15.8562651,7.399241,15.827760699999999,7.2582917Q15.7992563,7.117342,15.7661753,6.9786605999999995Q15.7330942,6.8399789,15.6955171,6.7038991Q15.657939899999999,6.5678196,15.6159563,6.4346692999999995Q15.573972699999999,6.3015191999999995,15.5276842,6.1716194Q15.4813957,6.0417197,15.4309134,5.9153833Q15.3804312,5.789047,15.3258772,5.666578299999999Q15.271323200000001,5.5441098,15.2128291,5.4258039Q15.154335,5.307498,15.092041,5.1936402Q15.029747,5.079782,14.9638038,4.9706461Q14.8978605,4.8615103,14.8284264,4.7573593Q14.7589922,4.6532083,14.686235400000001,4.5542933Q14.6134777,4.4553782,14.5375729,4.3619373Q14.4616671,4.2684963,14.382796299999999,4.1807548Q14.3039255,4.093013,14.222279499999999,4.0111822Q14.140633600000001,3.9293513300000003,14.0564098,3.85362822Q13.9721861,3.77790523,13.885586700000001,3.70847237Q13.7989864,3.63903952,13.7102194,3.57606423Q13.6214523,3.5130888799999997,13.530733099999999,3.45672277Q13.4400129,3.40035665,13.347559,3.3507356Q13.2551041,3.3011145,13.1611385,3.25835797Q13.0671721,3.21560144,12.97192,3.17981246Q12.876668500000001,3.14402349,12.7803607,3.1152883Q12.684052900000001,3.086553112,12.586921700000001,3.064940937Q12.48979,3.0433287509999998,12.3920689,3.028891638Q12.2943468,3.014454524,12.1962705,3.007227262Q12.0981941,3,12,3Q11.9018054,3,11.8037293,3.007227262Q11.7056532,3.014454524,11.6079316,3.028891638Q11.5102096,3.0433287509999998,11.4130778,3.064940929Q11.3159461,3.086553112,11.2196386,3.1152883Q11.1233308,3.14402349,11.028079,3.17981246Q10.9328275,3.21560144,10.8388612,3.25835797Q10.7448947,3.3011145,10.6524403,3.35073557Q10.559985600000001,3.40035665,10.4692659,3.45672277Q10.378546,3.5130888799999997,10.2897792,3.57606423Q10.2010126,3.63903958,10.1144128,3.70847243Q10.027813,3.77790529,9.9435889,3.8536284Q9.8593646,3.92935145,9.7777189,4.0111823Q9.6960732,4.0930133,9.6172028,4.1807548Q9.5383322,4.2684964,9.4624269,4.3619373Q9.3865216,4.4553782,9.3137642,4.5542932Q9.2410069,4.6532083,9.1715728,4.7573593Q9.1021388,4.8615103,9.0361955,4.9706461Q8.9702521,5.079782,8.90795821,5.1936402Q8.84566426,5.307498,8.78716981,5.4258039Q8.72867543,5.5441098,8.6741215,5.666578299999999Q8.61956751,5.789047,8.56908548,5.9153833Q8.51860344,6.0417199,8.47231492,6.1716199Q8.42602634,6.3015194,8.38404277,6.4346695Q8.34205922,6.5678196,8.30448183,6.7038991Q8.26690444,6.8399789,8.23382372,6.9786605999999995Q8.20074299,7.117342,8.17223865,7.2582917Q8.14373429,7.399241,8.11987498,7.5421185Q8.096015662,7.6849961,8.076858871,7.8294578Q8.057702076,7.9739189,8.043293957,8.1196165Q8.028885834,8.265314100000001,8.019261092,8.4118967Q8.009636349,8.5584793,8.0048181745,8.7055931Q8,8.8527079,8,9Q8,9.1472917,8.0048181745,9.2944064Q8.009636349,9.4415207,8.019261092,9.5881033Q8.028885834,9.734685899999999,8.043293953,9.8803825Q8.057702076,10.0260801,8.076858871,10.170541799999999Q8.096015662,10.3150034,8.11987497,10.4578815Q8.14373429,10.600758599999999,8.17223865,10.741708299999999Q8.20074299,10.8826571,8.23382372,11.0213385Q8.26690444,11.1600199,8.30448183,11.2960997Q8.34205922,11.4321795,8.38404277,11.5653305Q8.42602631,11.6984806,8.47231489,11.8283806Q8.51860344,11.9582806,8.56908548,12.0846167Q8.61956751,12.2109528,8.6741215,12.3334208Q8.72867543,12.4558897,8.78716981,12.5741949Q8.8456642,12.6925011,8.90795815,12.8063593Q8.97025204,12.9202166,9.0361954,13.029352Q9.1021388,13.138489,9.1715728,13.24264Q9.2410069,13.34679,9.3137642,13.445706Q9.3865216,13.544621,9.4624269,13.638062Q9.5383322,13.731503,9.6172028,13.819243Q9.6960733,13.906985,9.777719,13.988816Q9.8593647,14.070647,9.9435889,14.146371Q10.027813,14.222094,10.1144128,14.291527Q10.2010126,14.36096,10.2897792,14.423935Q10.378546,14.48691,10.4692659,14.543276Q10.559985600000001,14.599642,10.6524401,14.649263Q10.7448947,14.698885,10.8388612,14.741642Q10.9328275,14.784397,11.028079,14.820187Q11.1233308,14.855975,11.2196386,14.88471Q11.3159461,14.913446,11.4130778,14.935058Q11.5102096,14.956671,11.6079316,14.971108Q11.7056532,14.985545,11.8037295,14.992773Q11.9018054,15,12,15ZM13.580351799999999,5.5894096Q14.5,6.9688818,14.5,9Q14.5,11.0311184,13.580351799999999,12.4105902Q12.854078300000001,13.5,12,13.5Q11.1459212,13.5,10.419648200000001,12.4105902Q9.5,11.0311184,9.5,9Q9.5,6.9688816,10.419648200000001,5.5894096Q11.1459212,4.5,12,4.5Q12.8540788,4.5,13.580351799999999,5.5894096Z" fill-rule="evenodd" fill="#8E8E8E" fill-opacity="1"/></g><g><path d="M12,17.5Q15.25,17.5,18.4,13.30000001L17.6,12.69999999Q14.75,16.5,12,16.5Q9.25,16.5,6.40000001,12.69999999L5.59999999,13.30000001Q8.7499995,17.5,12,17.5Z" fill-rule="evenodd" fill="#8E8E8E" fill-opacity="1"/></g><g><path d="M11.5,20L11.5,17L12.5,17L12.5,20L11.5,20Z" fill-rule="evenodd" fill="#8E8E8E" fill-opacity="1"/></g><g><path d="M17,20.5L7,20.5L7,19.5L17,19.5L17,20.5Z" fill-rule="evenodd" fill="#8E8E8E" fill-opacity="1"/></g></g><g transform="matrix(0.7071067690849304,0.7071068286895752,-0.7071067690849304,0.7071067690849304,6,-2.4852815866470337)"><line x1="6" y1="5.5" x2="24" y2="5.5" fill-opacity="0" stroke-opacity="1" stroke="#C50808" fill="none" stroke-width="1"/></g></g></g></svg>