<svg xmlns="http://www.w3.org/2000/svg" xmlns:xlink="http://www.w3.org/1999/xlink" fill="none" version="1.1" width="24" height="24" viewBox="0 0 24 24"><defs><clipPath id="master_svg0_2_07"><rect x="0" y="0" width="24" height="24" rx="0"/></clipPath></defs><g clip-path="url(#master_svg0_2_07)"><g><g><ellipse cx="12" cy="10" rx="4" ry="6" fill="#D8D8D8" fill-opacity="0"/><path d="M12,16Q12.0981941,16,12.1962705,15.992772Q12.2943468,15.985545,12.3920684,15.971108Q12.48979,15.956671,12.586921199999999,15.935059Q12.684052900000001,15.913446,12.7803607,15.88471Q12.876668500000001,15.855975,12.97192,15.820187Q13.0671721,15.784397,13.1611385,15.741642Q13.2551041,15.698885,13.3475585,15.649263Q13.4400129,15.599642,13.530733099999999,15.543276Q13.6214523,15.48691,13.7102194,15.423935Q13.7989864,15.36096,13.8855863,15.291527Q13.9721861,15.222094,14.0564098,15.14637Q14.140633600000001,15.070647,14.222279499999999,14.988816Q14.3039255,14.906985,14.382796299999999,14.819244Q14.4616671,14.731503,14.5375729,14.638062Q14.6134777,14.544622,14.686235,14.445707Q14.7589922,14.346792,14.8284264,14.24264Q14.8978605,14.13849,14.9638038,14.029354Q15.029747,13.9202185,15.092041,13.8063612Q15.154335,13.692503,15.2128291,13.5741968Q15.271323200000001,13.4558907,15.3258772,13.3334217Q15.3804312,13.2109528,15.4309134,13.0846167Q15.4813957,12.9582806,15.5276847,12.8283815Q15.573972699999999,12.6984806,15.6159568,12.5653305Q15.657939899999999,12.4321804,15.695517500000001,12.2961006Q15.733095200000001,12.1600208,15.7661757,12.0213394Q15.7992563,11.8826575,15.827761200000001,11.7417088Q15.8562651,11.600759,15.8801246,11.457881Q15.903984099999999,11.3150034,15.923140499999999,11.170541799999999Q15.942297499999999,11.0260801,15.9567056,10.880383Q15.971114199999999,10.734685899999999,15.980739100000001,10.5881033Q15.9903636,10.4415207,15.995182,10.294405900000001Q16,10.1472917,16,10Q16,9.8527079,15.9951816,9.7055931Q15.9903636,9.5584793,15.980739100000001,9.4118967Q15.971114199999999,9.265314100000001,15.956706,9.1196165Q15.942297499999999,8.973918900000001,15.923140499999999,8.8294573Q15.9039836,8.6849957,15.8801241,8.5421181Q15.8562651,8.399241,15.827760699999999,8.258291700000001Q15.7992563,8.117342,15.7661753,7.9786605999999995Q15.7330942,7.8399789,15.6955171,7.7038991Q15.657939899999999,7.5678196,15.6159563,7.4346692999999995Q15.573972699999999,7.3015191999999995,15.5276842,7.1716194Q15.4813957,7.0417197,15.4309134,6.9153833Q15.3804312,6.789047,15.3258772,6.666578299999999Q15.271323200000001,6.5441098,15.2128291,6.4258039Q15.154335,6.307498,15.092041,6.1936402Q15.029747,6.079782,14.9638038,5.9706461Q14.8978605,5.8615103,14.8284264,5.7573593Q14.7589922,5.6532083,14.686235400000001,5.5542933Q14.6134777,5.4553782,14.5375729,5.3619373Q14.4616671,5.2684963,14.382796299999999,5.1807548Q14.3039255,5.093013,14.222279499999999,5.0111822Q14.140633600000001,4.92935133,14.0564098,4.85362822Q13.9721861,4.77790523,13.885586700000001,4.70847237Q13.7989864,4.63903952,13.7102194,4.57606423Q13.6214523,4.51308888,13.530733099999999,4.45672277Q13.4400129,4.40035665,13.347559,4.3507356Q13.2551041,4.3011145,13.1611385,4.25835797Q13.0671721,4.21560144,12.97192,4.17981246Q12.876668500000001,4.14402349,12.7803607,4.1152883Q12.684052900000001,4.086553112,12.586921700000001,4.064940937Q12.48979,4.043328751,12.3920689,4.028891638Q12.2943468,4.014454524,12.1962705,4.007227262Q12.0981941,4,12,4Q11.9018054,4,11.8037293,4.007227262Q11.7056532,4.014454524,11.6079316,4.028891638Q11.5102096,4.043328751,11.4130778,4.064940929Q11.3159461,4.086553112,11.2196386,4.1152883Q11.1233308,4.14402349,11.028079,4.17981246Q10.9328275,4.21560144,10.8388612,4.25835797Q10.7448947,4.3011145,10.6524403,4.35073557Q10.559985600000001,4.40035665,10.4692659,4.45672277Q10.378546,4.51308888,10.2897792,4.57606423Q10.2010126,4.63903958,10.1144128,4.7084724300000005Q10.027813,4.77790529,9.9435889,4.8536284Q9.8593646,4.92935145,9.7777189,5.0111823Q9.6960732,5.0930133,9.6172028,5.1807548Q9.5383322,5.2684964,9.4624269,5.3619373Q9.3865216,5.4553782,9.3137642,5.5542932Q9.2410069,5.6532083,9.1715728,5.7573593Q9.1021388,5.8615103,9.0361955,5.9706461Q8.9702521,6.079782,8.90795821,6.1936402Q8.84566426,6.307498,8.78716981,6.4258039Q8.72867543,6.5441098,8.6741215,6.666578299999999Q8.61956751,6.789047,8.56908548,6.9153833Q8.51860344,7.0417199,8.47231492,7.1716199Q8.42602634,7.3015194,8.38404277,7.4346695Q8.34205922,7.5678196,8.30448183,7.7038991Q8.26690444,7.8399789,8.23382372,7.9786605999999995Q8.20074299,8.117342,8.17223865,8.258291700000001Q8.14373429,8.399241,8.11987498,8.5421185Q8.096015662,8.6849961,8.076858871,8.8294578Q8.057702076,8.973918900000001,8.043293957,9.1196165Q8.028885834,9.265314100000001,8.019261092,9.4118967Q8.009636349,9.5584793,8.0048181745,9.7055931Q8,9.8527079,8,10Q8,10.1472917,8.0048181745,10.2944064Q8.009636349,10.4415207,8.019261092,10.5881033Q8.028885834,10.734685899999999,8.043293953,10.8803825Q8.057702076,11.0260801,8.076858871,11.170541799999999Q8.096015662,11.3150034,8.11987497,11.4578815Q8.14373429,11.600758599999999,8.17223865,11.741708299999999Q8.20074299,11.8826571,8.23382372,12.0213385Q8.26690444,12.1600199,8.30448183,12.2960997Q8.34205922,12.4321795,8.38404277,12.5653305Q8.42602631,12.6984806,8.47231489,12.8283806Q8.51860344,12.9582806,8.56908548,13.0846167Q8.61956751,13.2109528,8.6741215,13.3334208Q8.72867543,13.4558897,8.78716981,13.5741949Q8.8456642,13.6925011,8.90795815,13.8063593Q8.97025204,13.9202166,9.0361954,14.029352Q9.1021388,14.138489,9.1715728,14.24264Q9.2410069,14.34679,9.3137642,14.445706Q9.3865216,14.544621,9.4624269,14.638062Q9.5383322,14.731503,9.6172028,14.819243Q9.6960733,14.906985,9.777719,14.988816Q9.8593647,15.070647,9.9435889,15.146371Q10.027813,15.222094,10.1144128,15.291527Q10.2010126,15.36096,10.2897792,15.423935Q10.378546,15.48691,10.4692659,15.543276Q10.559985600000001,15.599642,10.6524401,15.649263Q10.7448947,15.698885,10.8388612,15.741642Q10.9328275,15.784397,11.028079,15.820187Q11.1233308,15.855975,11.2196386,15.88471Q11.3159461,15.913446,11.4130778,15.935058Q11.5102096,15.956671,11.6079316,15.971108Q11.7056532,15.985545,11.8037295,15.992773Q11.9018054,16,12,16ZM13.580351799999999,6.5894096Q14.5,7.9688818,14.5,10Q14.5,12.0311184,13.580351799999999,13.4105902Q12.854078300000001,14.5,12,14.5Q11.1459212,14.5,10.419648200000001,13.4105902Q9.5,12.0311184,9.5,10Q9.5,7.9688816,10.419648200000001,6.5894096Q11.1459212,5.5,12,5.5Q12.8540788,5.5,13.580351799999999,6.5894096Z" fill-rule="evenodd" fill="#FFFFFF" fill-opacity="1"/></g><g><path d="M12,18.5Q15.25,18.5,18.4,14.30000001L17.6,13.69999999Q14.75,17.5,12,17.5Q9.25,17.5,6.40000001,13.69999999L5.59999999,14.30000001Q8.7499995,18.5,12,18.5Z" fill-rule="evenodd" fill="#FFFFFF" fill-opacity="1"/></g><g><path d="M11.5,21L11.5,18L12.5,18L12.5,21L11.5,21Z" fill-rule="evenodd" fill="#FFFFFF" fill-opacity="1"/></g><g><path d="M17,21.5L7,21.5L7,20.5L17,20.5L17,21.5Z" fill-rule="evenodd" fill="#FFFFFF" fill-opacity="1"/></g></g></g></svg>