<svg xmlns="http://www.w3.org/2000/svg" xmlns:xlink="http://www.w3.org/1999/xlink" fill="none" version="1.1" width="12" height="32" viewBox="0 0 12 32"><defs><clipPath id="master_svg0_1_692"><rect x="0" y="0" width="12" height="32" rx="0"/></clipPath></defs><g clip-path="url(#master_svg0_1_692)"><g transform="matrix(0,0.9999999403953552,-0.9999999403953552,0,15.999999582767487,-1.999999463558197)"><path d="M24.361258,14.3453465Q24.384636999999998,14.3723416,24.406031,14.4009356Q24.427422999999997,14.429529200000001,24.446722,14.4595757Q24.466020999999998,14.4896226,24.483128,14.5209694Q24.500235,14.5523167,24.51506,14.5848036Q24.529888,14.6172915,24.542361,14.650753Q24.554831999999998,14.6842155,24.564885,14.7184815Q24.574939999999998,14.7527485,24.582523000000002,14.7876449Q24.590107,14.8225412,24.595181,14.857889199999999Q24.600256,14.8932381,24.602797000000002,14.9288578Q24.605337,14.9644785,24.605330000000002,15.0001888Q24.605324,15.0359001,24.60277,15.0715189Q24.600216,15.1071386,24.595126,15.1424847Q24.590038,15.1778316,24.582442,15.2127247Q24.574844,15.2476177,24.564778,15.2818804Q24.554712000000002,15.316143,24.542229,15.3496008Q24.529743,15.3830585,24.514904,15.4155397Q24.500065,15.4480209,24.482946,15.4793615Q24.465828000000002,15.5107021,24.446517999999998,15.540741Q24.427208,15.5707808,24.405804,15.5993671Q24.384401,15.6279526,24.361012000000002,15.6549387Q24.337623999999998,15.6819248,24.31237,15.7071733Q24.287115999999997,15.7324228,24.260125000000002,15.755806Q24.233135,15.7791901,24.204546,15.8005877Q24.175957,15.8219872,24.145913,15.8412914Q24.115871,15.8605957,24.084528,15.8777084Q24.053184,15.8948212,24.020699,15.9096537Q23.988214,15.9244862,23.954754,15.936965Q23.921295,15.9494438,23.88703,15.9595032Q23.852766000000003,15.9695635,23.81787,15.9771538Q23.782975,15.9847431,23.747627,15.9898243Q23.71228,15.9949055,23.67666,15.9974527Q23.64104,16,23.605328999999998,16L12.394672400000001,16Q12.3589616,16,12.3233418,15.9974527Q12.2877221,15.9949055,12.2523746,15.9898243Q12.2170272,15.9847431,12.1821322,15.9771538Q12.1472373,15.9695635,12.1129727,15.9595032Q12.0787082,15.9494438,12.0452485,15.936965Q12.0117888,15.9244862,11.979304299999999,15.9096537Q11.9468198,15.8948212,11.9154763,15.8777084Q11.8841329,15.8605957,11.8540895,15.8412914Q11.8240464,15.8219872,11.7954566,15.8005877Q11.7668672,15.7791901,11.7398767,15.755806Q11.712886300000001,15.7324228,11.6876326,15.7071743Q11.662378799999999,15.6819248,11.6389904,15.6549387Q11.615601999999999,15.6279526,11.594198200000001,15.5993662Q11.5727942,15.5707808,11.553483700000001,15.540741Q11.5341735,15.5107021,11.517055299999999,15.4793615Q11.4999368,15.4480209,11.4850974,15.4155397Q11.4702582,15.3830585,11.4577737,15.3496008Q11.4452891,15.316144,11.4352231,15.2818813Q11.4251571,15.2476187,11.4175603,15.2127256Q11.4099638,15.1778316,11.4048755,15.1424847Q11.399787400000001,15.1071386,11.3972335,15.0715189Q11.3946795,15.0359001,11.3946729,15.0001888Q11.3946662,14.9644785,11.3972068,14.9288583Q11.399747399999999,14.8932381,11.4048221,14.857889199999999Q11.4098971,14.8225412,11.4174805,14.7876444Q11.4250641,14.7527485,11.4351172,14.7184815Q11.4451704,14.6842155,11.4576423,14.6507535Q11.4701142,14.6172915,11.4849412,14.5848036Q11.4997683,14.5523167,11.516875,14.5209694Q11.5339813,14.4896226,11.5532804,14.4595757Q11.5725794,14.429529200000001,11.5939724,14.4009352Q11.6153655,14.3723416,11.6387436,14.3453465L17.244070999999998,7.87287152Q17.2791729,7.83233988,17.3184071,7.79579401Q17.3576412,7.75924814,17.400557499999998,7.72710705Q17.4434748,7.69496602,17.4895821,7.66759831Q17.5356903,7.64023066,17.5844603,7.61795008Q17.6332302,7.59566957,17.684103,7.57873172Q17.7349758,7.56179386,17.7873678,7.55039287Q17.8397598,7.53899193,17.8930712,7.53325856Q17.9463825,7.52752519,18,7.52752519Q18.053619400000002,7.52752519,18.1069298,7.53325856Q18.1602402,7.53899193,18.2126312,7.55039287Q18.2650242,7.56179386,18.315896000000002,7.57873172Q18.3667688,7.59566957,18.4155388,7.61795008Q18.4643078,7.64023066,18.510416,7.66759831Q18.5565243,7.69496602,18.599441499999998,7.72710705Q18.6423588,7.75924814,18.6815929,7.79579401Q18.7208271,7.83233988,18.755929000000002,7.87287152L24.361258,14.3453465Z" fill="#8E8E8E" fill-opacity="1"/></g></g></svg>