<svg xmlns="http://www.w3.org/2000/svg" xmlns:xlink="http://www.w3.org/1999/xlink" fill="none" version="1.1" width="34" height="32" viewBox="0 0 34 32"><defs><clipPath id="master_svg0_1_646"><rect x="0" y="0" width="34" height="32" rx="0"/></clipPath><filter id="master_svg1_1_648" filterUnits="objectBoundingBox" color-interpolation-filters="sRGB" x="-2" y="-1.6" width="5" height="5"><feFlood flood-opacity="0" result="BackgroundImageFix"/><feColorMatrix in="SourceAlpha" type="matrix" values="0 0 0 0 0 0 0 0 0 0 0 0 0 0 0 0 0 0 127 0"/><feOffset dy="4" dx="0"/><feGaussianBlur stdDeviation="5"/><feColorMatrix type="matrix" values="0 0 0 0 0 0 0 0 0 0 0 0 0 0 0 0 0 0 0.30000001192092896 0"/><feBlend mode="normal" in2="BackgroundImageFix" result="effect1_dropShadow"/><feBlend mode="normal" in="SourceGraphic" in2="effect1_dropShadow" result="shape"/></filter></defs><g clip-path="url(#master_svg0_1_646)"><g filter="url(#master_svg1_1_648)"><ellipse cx="17" cy="16" rx="5" ry="5" fill="#D8D8D8" fill-opacity="0"/><path d="M22,16Q22,16.1227431,21.9939785,16.2453384Q21.9879551,16.3679338,21.975924499999998,16.4900861Q21.963892899999998,16.6122379,21.945881800000002,16.7336521Q21.9278717,16.8550663,21.9039259,16.9754515Q21.879980099999997,17.095835700000002,21.8501549,17.2149005Q21.8203316,17.3339653,21.784701300000002,17.4514232Q21.749071100000002,17.568881,21.7077198,17.6844492Q21.6663685,17.8000164,21.6193972,17.9134164Q21.572425799999998,18.0268164,21.5199461,18.1377745Q21.4674664,18.248733,21.409606,18.356983200000002Q21.3517456,18.4652328,21.288641900000002,18.5705128Q21.2255392,18.6757927,21.157346699999998,18.7778502Q21.0891542,18.8799076,21.016037,18.9784956Q20.9429188,19.0770836,20.8650522,19.1719656Q20.787184699999997,19.2668476,20.7047548,19.3577938Q20.6223259,19.448741,20.5355339,19.5355339Q20.448741,19.6223259,20.3577948,19.7047558Q20.2668476,19.787185700000002,20.171966599999998,19.8650532Q20.077084499999998,19.942920700000002,19.9784961,20.0160379Q19.8799076,20.0891552,19.7778502,20.157347700000003Q19.6757927,20.225540199999998,19.5705128,20.2886429Q19.4652328,20.3517456,19.356983200000002,20.409606Q19.248733,20.4674664,19.1377749,20.5199461Q19.0268164,20.572425799999998,18.9134169,20.6193972Q18.8000169,20.6663685,18.6844487,20.7077198Q18.568881,20.749071100000002,18.4514232,20.784701300000002Q18.3339653,20.8203316,18.2149005,20.8501568Q18.095835700000002,20.879980099999997,17.9754515,20.9039268Q17.8550663,20.9278727,17.7336521,20.9458828Q17.6122379,20.963893900000002,17.4900861,20.975924499999998Q17.3679338,20.9879551,17.2453384,20.9939775Q17.1227431,21,17,21Q16.8772569,21,16.7546616,20.9939775Q16.6320662,20.9879551,16.5099144,20.975924499999998Q16.3877621,20.963892899999998,16.2663474,20.945881800000002Q16.1449327,20.9278717,16.0245481,20.9039259Q15.9041634,20.879980099999997,15.7850986,20.8501549Q15.6660342,20.8203316,15.5485766,20.784701300000002Q15.4311185,20.749071100000002,15.3155506,20.7077198Q15.1999824,20.6663685,15.086582700000001,20.6193972Q14.9731827,20.572425799999998,14.8622246,20.5199461Q14.751266000000001,20.4674664,14.6430163,20.409606Q14.5347667,20.3517456,14.4294863,20.288641900000002Q14.324205899999999,20.2255392,14.2221487,20.157346699999998Q14.1200914,20.0891542,14.0215032,20.016037Q13.9229152,19.9429188,13.8280334,19.8650522Q13.7331517,19.787184699999997,13.642205,19.7047548Q13.5512584,19.6223259,13.464466,19.5355339Q13.3776735,19.448741,13.295244199999999,19.3577948Q13.212814999999999,19.2668476,13.1349477,19.171966599999998Q13.057080299999999,19.077084499999998,12.98396218,18.9784961Q12.91084421,18.8799076,12.84265178,18.7778502Q12.77445936,18.6757927,12.71135676,18.5705128Q12.64825428,18.4652328,12.5903936,18.356983200000002Q12.53253293,18.248733,12.48005345,18.1377749Q12.42757404,18.0268164,12.38060227,17.9134169Q12.3336305,17.8000169,12.2922796,17.6844487Q12.25092873,17.568881,12.2152983,17.4514232Q12.17966786,17.3339653,12.14984372,17.2149005Q12.12001957,17.095835700000002,12.096073583,16.9754515Q12.072127596,16.8550663,12.054117441,16.7336521Q12.036107291,16.6122379,12.024076365,16.4900861Q12.012045437,16.3679338,12.0060227183,16.2453384Q12,16.1227431,12,16Q12,15.877256899999999,12.0060227183,15.7546616Q12.012045437,15.6320662,12.024076365,15.5099144Q12.036107291,15.3877621,12.054117441,15.2663474Q12.072127596,15.1449327,12.096073583,15.0245481Q12.12001957,14.9041634,12.14984371,14.7850986Q12.17966786,14.6660342,12.2152983,14.5485766Q12.25092873,14.4311185,12.29227963,14.3155506Q12.3336305,14.1999824,12.38060227,14.086582700000001Q12.42757404,13.9731827,12.48005345,13.8622246Q12.53253293,13.751266000000001,12.5903936,13.6430163Q12.64825428,13.5347667,12.71135688,13.4294863Q12.77445936,13.324205899999999,12.84265178,13.2221487Q12.91084421,13.1200914,12.98396218,13.0215032Q13.057080299999999,12.9229152,13.1349477,12.8280334Q13.212814999999999,12.7331517,13.295244199999999,12.642205Q13.3776735,12.5512584,13.464466,12.464466Q13.5512584,12.3776735,13.642205,12.295244199999999Q13.7331518,12.212814999999999,13.8280336,12.1349477Q13.9229152,12.057080299999999,14.0215034,11.98396218Q14.1200914,11.91084421,14.2221487,11.84265178Q14.324205899999999,11.77445936,14.4294863,11.71135676Q14.5347667,11.64825428,14.6430163,11.5903936Q14.751266000000001,11.53253293,14.8622241,11.48005345Q14.9731827,11.42757404,15.086582400000001,11.38060227Q15.1999822,11.3336305,15.3155503,11.2922796Q15.4311185,11.25092873,15.5485766,11.2152983Q15.6660345,11.17966786,15.785099,11.14984372Q15.9041638,11.12001957,16.0245485,11.096073583Q16.1449327,11.072127596,16.2663474,11.054117441Q16.3877621,11.036107291,16.5099144,11.024076365Q16.6320662,11.012045437,16.7546616,11.0060227183Q16.8772569,11,17,11Q17.1227431,11,17.2453384,11.0060227183Q17.3679338,11.012045437,17.4900861,11.024076365Q17.6122379,11.036107291,17.7336521,11.054117441Q17.8550663,11.072127596,17.9754515,11.096073583Q18.095835700000002,11.12001957,18.2149005,11.14984371Q18.3339653,11.17966786,18.4514232,11.2152983Q18.568881,11.25092873,18.6844492,11.29227963Q18.8000164,11.3336305,18.9134164,11.38060227Q19.0268164,11.42757404,19.1377745,11.48005345Q19.248733,11.53253293,19.356983200000002,11.5903936Q19.4652328,11.64825428,19.5705128,11.71135688Q19.6757927,11.77445936,19.7778502,11.84265178Q19.8799076,11.91084421,19.9784956,11.98396218Q20.0770836,12.057080299999999,20.1719656,12.1349477Q20.2668476,12.212814999999999,20.3577938,12.295244199999999Q20.448741,12.3776735,20.5355339,12.464466Q20.6223259,12.5512584,20.7047558,12.642205Q20.787185700000002,12.7331518,20.8650532,12.8280336Q20.942920700000002,12.9229152,21.0160379,13.0215034Q21.0891552,13.1200914,21.157347700000003,13.2221487Q21.225540199999998,13.324205899999999,21.2886429,13.4294863Q21.3517456,13.5347667,21.409606,13.6430163Q21.4674664,13.751266000000001,21.5199461,13.8622241Q21.572425799999998,13.9731827,21.6193972,14.086582400000001Q21.6663685,14.1999822,21.7077198,14.3155503Q21.749071100000002,14.4311185,21.784701300000002,14.5485766Q21.8203316,14.6660345,21.8501568,14.785099Q21.879980099999997,14.9041638,21.9039268,15.0245485Q21.9278727,15.1449327,21.9458828,15.2663474Q21.963893900000002,15.3877621,21.975924499999998,15.5099144Q21.9879551,15.6320662,21.9939785,15.7546616Q22,15.877256899999999,22,16ZM21,16Q21,15.803493,20.9807396,15.6079316Q20.961478200000002,15.4123707,20.9231415,15.2196383Q20.8848047,15.026907,20.8277617,14.838861Q20.770717599999998,14.650815,20.6955175,14.4692657Q20.6203175,14.2877169,20.5276852,14.1144128Q20.435051,13.941108700000001,20.3258772,13.7777188Q20.216704399999998,13.6143289,20.092042,13.4624267Q19.9673786,13.3105245,19.8284268,13.1715727Q19.6894751,13.0326211,19.5375729,12.907958Q19.3856707,12.7832952,19.2222805,12.6741214Q19.0588908,12.5649478,18.8855867,12.4723148Q18.7122822,12.3796819,18.5307331,12.3044817Q18.349184,12.2292818,18.1611385,12.1722387Q17.973093,12.1151955,17.7803612,12.0768588Q17.587629800000002,12.0385222,17.392068899999998,12.0192611Q17.1965075,12,17,12Q16.803493,12,16.6079316,12.0192611Q16.4123707,12.0385222,16.2196383,12.0768589Q16.026907,12.1151956,15.838861,12.1722387Q15.650815,12.2292818,15.4692657,12.3044817Q15.2877169,12.3796819,15.1144128,12.4723148Q14.941108700000001,12.5649478,14.7777188,12.6741214Q14.6143289,12.7832952,14.4624267,12.907958Q14.3105245,13.0326211,14.1715727,13.1715727Q14.0326211,13.3105245,13.907958,13.4624267Q13.7832952,13.6143289,13.6741214,13.7777185Q13.5649478,13.941108700000001,13.4723148,14.1144128Q13.3796819,14.2877169,13.3044817,14.4692659Q13.2292817,14.6508152,13.1722386,14.8388612Q13.1151955,15.026907399999999,13.0768588,15.2196388Q13.0385221,15.4123707,13.0192611,15.6079321Q13,15.803493,13,16Q13,16.1965075,13.0192611,16.392068899999998Q13.0385221,16.5876293,13.0768588,16.7803607Q13.1151955,16.9730921,13.1722386,17.1611376Q13.2292817,17.349184,13.3044817,17.5307326Q13.3796819,17.7122822,13.4723148,17.8855867Q13.5649478,18.0588903,13.6741214,18.222279999999998Q13.7832952,18.3856707,13.907958,18.5375729Q14.0326211,18.6894751,14.1715727,18.8284268Q14.3105245,18.9673786,14.4624267,19.092042Q14.6143289,19.2167053,14.7777185,19.3258781Q14.941108700000001,19.435051899999998,15.1144128,19.5276842Q15.2877169,19.6203175,15.4692659,19.6955175Q15.6508152,19.770717599999998,15.8388612,19.8277607Q16.0269074,19.8848047,16.2196388,19.9231415Q16.4123707,19.961478200000002,16.6079321,19.9807396Q16.803493,20,17,20Q17.1965075,20,17.392068899999998,19.9807396Q17.5876293,19.961478200000002,17.7803607,19.9231415Q17.9730921,19.8848047,18.1611376,19.8277617Q18.349184,19.770717599999998,18.5307326,19.6955175Q18.7122822,19.6203175,18.8855867,19.5276852Q19.0588903,19.435051,19.222279999999998,19.3258772Q19.3856707,19.216704399999998,19.5375729,19.092042Q19.6894751,18.9673786,19.8284268,18.8284268Q19.9673786,18.6894751,20.092042,18.5375729Q20.2167053,18.3856707,20.3258781,18.2222805Q20.435051899999998,18.0588908,20.5276842,17.8855867Q20.6203175,17.7122822,20.6955175,17.5307331Q20.770717599999998,17.349184,20.8277607,17.1611385Q20.8848047,16.973093,20.9231415,16.7803612Q20.961478200000002,16.587629800000002,20.9807396,16.392068899999998Q21,16.1965075,21,16Z" fill="#FFFFFF" fill-opacity="1"/></g><g transform="matrix(-1,0,0,-1,50,46)"><path d="M25.75,23.75L29,23.75L29,22.25L24.25,22.25L24.25,27L25.75,27L25.75,23.75Z" fill-rule="evenodd" fill="#8E8E8E" fill-opacity="1"/></g><g transform="matrix(0,-1,1,0,-14,32)"><path d="M9.75,23.75L13,23.75L13,22.25L8.25,22.25L8.25,27L9.75,27L9.75,23.75Z" fill-rule="evenodd" fill="#8E8E8E" fill-opacity="1"/></g><g transform="matrix(0,1,-1,0,34,-16)"><path d="M25.75,9.75L29,9.75L29,8.25L24.25,8.25L24.25,13L25.75,13L25.75,9.75Z" fill-rule="evenodd" fill="#8E8E8E" fill-opacity="1"/></g><g><path d="M9.75,9.75L13,9.75L13,8.25L8.25,8.25L8.25,13L9.75,13L9.75,9.75Z" fill-rule="evenodd" fill="#8E8E8E" fill-opacity="1"/></g></g></svg>