<svg xmlns="http://www.w3.org/2000/svg" xmlns:xlink="http://www.w3.org/1999/xlink" fill="none" version="1.1" width="32" height="32" viewBox="0 0 32 32"><defs><clipPath id="master_svg0_1_605"><rect x="0" y="0" width="32" height="32" rx="0"/></clipPath></defs><g clip-path="url(#master_svg0_1_605)"><g transform="matrix(0,0.9999999403953552,-0.9999999403953552,0,30.99999964237213,-18.99999850988388)"><path d="M41.684498000000005,16.420102999999997Q41.720642,16.476444,41.752935,16.535074Q41.785229,16.593705,41.81353,16.654363Q41.841835,16.715023000000002,41.866018,16.777439Q41.890202,16.839854000000003,41.910154,16.903747Q41.930111,16.96764,41.945749,17.032724Q41.961388,17.097808,41.972639,17.163791Q41.983892,17.229776,41.990707,17.296365Q41.997524,17.362954000000002,41.999871999999996,17.429849Q42.00222,17.496744,42.00009,17.563647Q41.997959,17.630549000000002,41.99136,17.697159Q41.984762,17.763771,41.973726,17.829791999999998Q41.962688,17.895813,41.947261999999995,17.960946Q41.931835,18.026080999999998,41.912086,18.090038Q41.892337999999995,18.153996,41.868359,18.216488Q41.844379,18.278984,41.816277,18.339734999999997Q41.78817,18.400486,41.756067,18.459221Q41.723965,18.517957,41.688005000000004,18.574413Q41.652046,18.630871,41.612392,18.684797Q41.572742000000005,18.738726,41.529572,18.789882Q41.486401,18.841037,41.439904999999996,18.889191Q41.393412,18.937345999999998,41.343801,18.982281999999998Q41.294193,19.02722,41.241687999999996,19.068739Q41.189186,19.11026,41.134024,19.148178Q41.078863,19.186095,41.02129,19.220239Q40.963717,19.254383,40.903988,19.284601000000002Q40.844261,19.314818000000002,40.782645,19.340974Q40.721032,19.367131999999998,40.657806,19.389112Q40.594582,19.411091,40.530027000000004,19.428793Q40.465475,19.446495,40.399882,19.459842000000002Q40.334289999999996,19.473187,40.26795,19.482118Q40.201613,19.491049,40.134827,19.495525Q40.068041,19.500000999999997,40.001102,19.500000999999997L29.998896600000002,19.500000999999997Q29.9319601,19.500000999999997,29.865173300000002,19.495524Q29.7983866,19.491049,29.732048,19.482117000000002Q29.665710400000002,19.473186,29.6001182,19.459842000000002Q29.5345254,19.446495,29.469971700000002,19.428792Q29.405418400000002,19.411091,29.3421926,19.389112Q29.278967899999998,19.367131999999998,29.2173529,19.340975Q29.1557388,19.314819,29.0960116,19.284601000000002Q29.036284000000002,19.254383,28.978710200000002,19.220239Q28.9211369,19.186095,28.8659751,19.148177Q28.8108134,19.11026,28.7583101,19.068739Q28.7058072,19.02722,28.656198,18.982283000000002Q28.6065886,18.937345999999998,28.5600946,18.889191Q28.5136008,18.841037,28.4704309,18.789881Q28.4272604,18.738726,28.3876069,18.684797Q28.3479543,18.630871,28.311995500000002,18.574414Q28.2760367,18.517957,28.2439332,18.459221Q28.2118299,18.400486,28.1837254,18.339734999999997Q28.1556206,18.278984,28.1316407,18.216488Q28.1076612,18.153996,28.087914,18.090038Q28.0681663,18.026080999999998,28.0527391,17.960946Q28.037312,17.895813,28.026274700000002,17.829791999999998Q28.0152369,17.763771,28.0086381,17.697159Q28.0020399,17.630549000000002,27.9999099,17.563647Q27.9977798,17.496744,28.0001276,17.429849Q28.0024757,17.362954000000002,28.0092909,17.296365Q28.016106100000002,17.229776,28.0273583,17.163791Q28.038610900000002,17.097808,28.0542498,17.032724Q28.0698891,16.96764,28.089844499999998,16.903747Q28.1098003,16.839854000000003,28.133983399999998,16.777438Q28.1581662,16.715023000000002,28.1864679,16.654364Q28.2147703,16.593705999999997,28.2470648,16.535074Q28.2793593,16.476444,28.3155015,16.420102999999997L33.3166046,8.6241539Q33.3503761,8.571508399999999,33.387371099999996,8.5210762Q33.424366,8.470644,33.464441300000004,8.4226222Q33.5045156,8.3746002,33.547513,8.3291762Q33.5905094,8.283752,33.6362619,8.2411036Q33.6820126,8.1984549,33.7303391,8.1587486Q33.7786655,8.1190419,33.8293791,8.0824327Q33.8800926,8.0458236,33.9329948,8.012455Q33.9858961,7.9790862,34.0407801,7.9490883Q34.095663099999996,7.9190903,34.1523132,7.8925804Q34.2089634,7.8660704,34.2671604,7.8431523Q34.3253555,7.8202338000000005,34.3848705,7.8009968999999995Q34.444385499999996,7.7817599,34.5049877,7.7662793Q34.565588,7.7507987,34.627038,7.7391348Q34.6884871,7.7274711,34.7505455,7.7196698Q34.812602999999996,7.7118686,34.8750286,7.7079605Q34.937452300000004,7.7040523,35,7.7040523Q35.062546,7.7040523,35.12497,7.7079606Q35.187395,7.7118687999999995,35.249453,7.7196701Q35.311510999999996,7.7274711,35.372961000000004,7.7391349Q35.43441,7.7507987,35.495011,7.7662795Q35.555611999999996,7.78176,35.615127,7.800997Q35.674641,7.8202339,35.732838,7.8431523Q35.791033999999996,7.8660705,35.847684,7.8925804Q35.904335,7.9190903,35.959219,7.9490885Q36.014102,7.9790862,36.067003,8.012455Q36.119905,8.0458236,36.170618,8.082433Q36.221331,8.1190419,36.269658,8.1587486Q36.317986,8.1984549,36.363738,8.2411036Q36.409489,8.283752,36.452486,8.3291762Q36.495482,8.3745999,36.535557,8.422622Q36.575631,8.470644,36.612626,8.5210762Q36.649622,8.571508399999999,36.683395000000004,8.6241539L41.684498000000005,16.420102999999997Z" fill="#FFFFFF" fill-opacity="1"/></g></g></svg>