<svg xmlns="http://www.w3.org/2000/svg" xmlns:xlink="http://www.w3.org/1999/xlink" fill="none" version="1.1" width="16" height="16" viewBox="0 0 16 16"><defs><clipPath id="master_svg0_3_108"><rect x="0" y="0" width="16" height="16" rx="0"/></clipPath></defs><g clip-path="url(#master_svg0_3_108)"><g><g><path d="M13.656523,3.3000624C14.536967,4.7168565,15.002683,6.3558302,14.99999,8.0280733C15.002625,9.7295275,14.520354,11.395872,13.610648,12.828543C13.48615,13.024755,13.213783,13.054632,13.0504,12.889999L12.764637,12.601684C12.640304,12.47636,12.618601,12.280862,12.712371,12.130893L12.782309,12.017083C13.497553,10.811803,13.874232,9.432869,13.871972,8.0280733C13.871972,6.5993891,13.489951,5.2602348,12.823292,4.1096244C12.787177,4.0476947,12.750072,3.986356,12.711994,3.9256325C12.618426,3.7757483,12.640122,3.5804839,12.764259,3.4552214L13.037615,3.1794243C13.206908,3.0085514,13.489275,3.0387526,13.619296,3.2416401L13.656145,3.3000617L13.656523,3.3000624ZM11.75243,5.3068967C12.158797,6.155365,12.369245,7.0857368,12.367951,8.0280733C12.369323,9.0121889,12.139713,9.982645,11.697909,10.860023C11.588342,11.077714,11.299973,11.123867,11.129012,10.951073L10.827456,10.646823C10.714278,10.53277,10.685012,10.358954,10.754512,10.21359C10.777449,10.165791,10.796624,10.124439,10.811665,10.089917C11.094977,9.4401608,11.24084,8.7379246,11.239935,8.0280752C11.239935,7.3387709,11.104572,6.6813335,10.86017,6.0808005C10.826609,6.0005417,10.790874,5.9212246,10.753009,5.8429394C10.683965,5.6976957,10.713363,5.5242972,10.826329,5.4104648L11.109085,5.1251826C11.289177,4.943821,11.592082,4.9915304,11.708815,5.2196445C11.725358,5.2511315,11.739647,5.2803426,11.75243,5.3068967ZM1.1280167,10.086502L3.2723761,10.086502C3.3621721,10.086511,3.4490004,10.118943,3.5171561,10.17793L7.8961172,13.96967L7.8961172,2.0291934L3.5088842,5.822073C3.4407742,5.8808389,3.3540995,5.9131269,3.2644808,5.9131207L1.1280167,5.9131207L1.1280167,10.086122L1.1280167,10.086502ZM0,10.84523L0,5.1547728C0,4.9452562,0.16834326,4.7754087,0.37600556,4.7754087L2.9862361,4.7754087L8.403348,0.091403224C8.5148745,-0.0050983378,8.6718941,-0.027221045,8.805356,0.034763634C8.938817,0.096748315,9.0242682,0.2314845,9.0241337,0.37971979L9.0241337,15.62066C9.0241213,15.768828,8.9386129,15.903427,8.8051834,15.965316C8.6717529,16.027203,8.514823,16.005053,8.403348,15.908598L2.9937565,11.224594L0.37600556,11.224594C0.16834326,11.224594,0,11.054747,0,10.84523Z" fill="#8E8E8E" fill-opacity="1" style="mix-blend-mode:passthrough"/></g><g transform="matrix(0.7071067690849304,0.7071068286895752,-0.7071067690849304,0.7071067690849304,2.414213538169861,0.17157286405563354)"><line x1="1" y1="2.5" x2="19" y2="2.5" fill-opacity="0" stroke-opacity="1" stroke="#C50808" fill="none" stroke-width="1"/></g></g></g></svg>