<svg xmlns="http://www.w3.org/2000/svg" xmlns:xlink="http://www.w3.org/1999/xlink" fill="none" version="1.1" width="24" height="24" viewBox="0 0 24 24"><defs><clipPath id="master_svg0_2_208"><rect x="0" y="0" width="24" height="24" rx="0"/></clipPath></defs><g clip-path="url(#master_svg0_2_208)"><g><path d="M18.656523,7.3000624C19.536967,8.716856499999999,20.002682999999998,10.3558302,19.99999,12.0280733C20.002625000000002,13.7295275,19.520353999999998,15.395872,18.610647999999998,16.828543C18.486150000000002,17.024755,18.213783,17.054631999999998,18.0504,16.889999L17.764637,16.601684C17.640304,16.47636,17.618600999999998,16.280862,17.712370999999997,16.130893L17.782308999999998,16.017083C18.497553,14.811803,18.874232,13.432869,18.871972,12.0280733C18.871972,10.5993891,18.489950999999998,9.2602348,17.823292000000002,8.109624400000001C17.787177,8.047694700000001,17.750072,7.986356,17.711994,7.9256325C17.618426,7.7757483,17.640121999999998,7.5804839,17.764259,7.4552214L18.037615000000002,7.1794243C18.206908,7.0085514,18.489275,7.0387526000000005,18.619296,7.2416401L18.656145000000002,7.3000617000000005L18.656523,7.3000624ZM16.75243,9.3068967C17.158797,10.155365,17.369245,11.0857368,17.367950999999998,12.0280733C17.369323,13.0121889,17.139713,13.982645,16.697909,14.860023C16.588342,15.077714,16.299973,15.123867,16.129012,14.951073L15.827456,14.646823C15.714278,14.53277,15.685012,14.358954,15.754512,14.21359C15.777449,14.165791,15.796624,14.124439,15.811665,14.089917C16.094977,13.4401608,16.24084,12.7379246,16.239935,12.0280752C16.239935,11.3387709,16.104571999999997,10.681333500000001,15.86017,10.080800499999999C15.826609,10.0005417,15.790874,9.9212246,15.753009,9.842939399999999C15.683965,9.6976957,15.713363,9.5242972,15.826329,9.4104648L16.109085,9.125182599999999C16.289177000000002,8.943821,16.592081999999998,8.9915304,16.708815,9.219644500000001C16.725358,9.2511315,16.739646999999998,9.2803426,16.75243,9.3068967ZM6.1280167,14.086502L8.272376099999999,14.086502C8.3621721,14.086511,8.4490004,14.118943,8.5171561,14.17793L12.896117199999999,17.96967L12.896117199999999,6.0291934000000005L8.5088842,9.822073C8.4407742,9.8808389,8.3540995,9.9131269,8.2644808,9.9131207L6.1280167,9.9131207L6.1280167,14.086122L6.1280167,14.086502ZM5,14.84523L5,9.1547728C5,8.9452562,5.16834326,8.7754087,5.37600556,8.7754087L7.9862361,8.7754087L13.403348,4.0914032240000004C13.5148745,3.9949016622,13.6718941,3.972778955,13.805356,4.034763634C13.938817,4.096748315,14.0242682,4.2314845,14.0241337,4.37971979L14.0241337,19.62066C14.0241213,19.768828,13.9386129,19.903427,13.8051834,19.965316C13.6717529,20.027203,13.514823,20.005053,13.403348,19.908597999999998L7.9937565,15.224594L5.37600556,15.224594C5.16834326,15.224594,5,15.054747,5,14.84523Z" fill="#FFFFFF" fill-opacity="1" style="mix-blend-mode:passthrough"/></g></g></svg>