<svg xmlns="http://www.w3.org/2000/svg" xmlns:xlink="http://www.w3.org/1999/xlink" fill="none" version="1.1" width="24" height="24" viewBox="0 0 24 24"><defs><clipPath id="master_svg0_3_108"><rect x="0" y="0" width="24" height="24" rx="0"/></clipPath></defs><g clip-path="url(#master_svg0_3_108)"><g><g><path d="M17.656523,6.3000624C18.536967,7.7168565,19.002682999999998,9.3558302,18.99999,11.0280733C19.002625000000002,12.7295275,18.520353999999998,14.395872,17.610647999999998,15.828543C17.486150000000002,16.024755,17.213783,16.054631999999998,17.0504,15.889999L16.764637,15.601684C16.640304,15.47636,16.618600999999998,15.280862,16.712370999999997,15.130893L16.782308999999998,15.017083C17.497553,13.811803,17.874232,12.432869,17.871972,11.0280733C17.871972,9.5993891,17.489950999999998,8.2602348,16.823292000000002,7.1096244C16.787177,7.0476947,16.750072,6.986356,16.711994,6.9256325C16.618426,6.7757483,16.640121999999998,6.5804839,16.764259,6.4552214L17.037615000000002,6.1794243C17.206908,6.0085514,17.489275,6.0387526000000005,17.619296,6.2416401L17.656145000000002,6.3000617000000005L17.656523,6.3000624ZM15.75243,8.3068967C16.158797,9.155365,16.369245,10.0857368,16.367950999999998,11.0280733C16.369323,12.0121889,16.139713,12.982645,15.697909,13.860023C15.588342,14.077714,15.299973,14.123867,15.129012,13.951073L14.827456,13.646823C14.714278,13.53277,14.685012,13.358954,14.754512,13.21359C14.777449,13.165791,14.796624,13.124439,14.811665,13.089917C15.094977,12.4401608,15.24084,11.7379246,15.239935,11.0280752C15.239935,10.3387709,15.104572,9.681333500000001,14.86017,9.080800499999999C14.826609,9.0005417,14.790874,8.9212246,14.753009,8.842939399999999C14.683965,8.6976957,14.713363,8.5242972,14.826329,8.4104648L15.109085,8.125182599999999C15.289177,7.943821,15.592082,7.9915304,15.708815,8.219644500000001C15.725358,8.2511315,15.739647,8.2803426,15.75243,8.3068967ZM5.1280167,13.086502L7.2723761,13.086502C7.3621721,13.086511,7.4490004,13.118943,7.517156099999999,13.17793L11.896117199999999,16.96967L11.896117199999999,5.0291934000000005L7.5088842,8.822073C7.4407742,8.8808389,7.3540995,8.9131269,7.264480799999999,8.9131207L5.1280167,8.9131207L5.1280167,13.086122L5.1280167,13.086502ZM4,13.84523L4,8.1547728C4,7.9452562,4.16834326,7.7754087,4.37600556,7.7754087L6.9862361,7.7754087L12.403348,3.091403224C12.5148745,2.9949016622,12.6718941,2.972778955,12.805356,3.034763634C12.938817,3.096748315,13.0242682,3.2314845,13.0241337,3.3797197900000002L13.0241337,18.62066C13.0241213,18.768828,12.9386129,18.903427,12.8051834,18.965316C12.6717529,19.027203,12.514823,19.005053,12.403348,18.908597999999998L6.9937565,14.224594L4.37600556,14.224594C4.16834326,14.224594,4,14.054747,4,13.84523Z" fill="#8E8E8E" fill-opacity="1" style="mix-blend-mode:passthrough"/></g><g transform="matrix(0.7071067690849304,0.7071068286895752,-0.7071067690849304,0.7071067690849304,5.70710676908493,-1.7781747579574585)"><line x1="5" y1="5.5" x2="23" y2="5.5" fill-opacity="0" stroke-opacity="1" stroke="#C50808" fill="none" stroke-width="1"/></g></g></g></svg>