<svg xmlns="http://www.w3.org/2000/svg" xmlns:xlink="http://www.w3.org/1999/xlink" fill="none" version="1.1" width="16" height="16" viewBox="0 0 16 16"><defs><clipPath id="master_svg0_2_208"><rect x="0" y="0" width="16" height="16" rx="0"/></clipPath></defs><g clip-path="url(#master_svg0_2_208)"><g><path d="M14.656523,3.3000624C15.536967,4.7168565,16.002682999999998,6.3558302,15.99999,8.0280733C16.002625000000002,9.7295275,15.520354,11.395872,14.610648,12.828543C14.48615,13.024755,14.213783,13.054632,14.0504,12.889999L13.764637,12.601684C13.640304,12.47636,13.618601,12.280862,13.712371,12.130893L13.782309,12.017083C14.497553,10.811803,14.874232,9.432869,14.871972,8.0280733C14.871972,6.5993891,14.489951,5.2602348,13.823292,4.1096244C13.787177,4.0476947,13.750072,3.986356,13.711994,3.9256325C13.618426,3.7757483,13.640122,3.5804839,13.764259,3.4552214L14.037615,3.1794243C14.206908,3.0085514,14.489275,3.0387526,14.619296,3.2416401L14.656145,3.3000617L14.656523,3.3000624ZM12.75243,5.3068967C13.158797,6.155365,13.369245,7.0857368,13.367951,8.0280733C13.369323,9.0121889,13.139713,9.982645,12.697909,10.860023C12.588342,11.077714,12.299973,11.123867,12.129012,10.951073L11.827456,10.646823C11.714278,10.53277,11.685012,10.358954,11.754512,10.21359C11.777449,10.165791,11.796624,10.124439,11.811665,10.089917C12.094977,9.4401608,12.24084,8.7379246,12.239935,8.0280752C12.239935,7.3387709,12.104572,6.6813335,11.86017,6.0808005C11.826609,6.0005417,11.790874,5.9212246,11.753009,5.8429394C11.683965,5.6976957,11.713363,5.5242972,11.826329,5.4104648L12.109085,5.1251826C12.289177,4.943821,12.592082,4.9915304,12.708815,5.2196445C12.725358,5.2511315,12.739647,5.2803426,12.75243,5.3068967ZM2.1280167,10.086502L4.2723761,10.086502C4.3621721,10.086511,4.4490004,10.118943,4.517156099999999,10.17793L8.896117199999999,13.96967L8.896117199999999,2.0291934L4.5088842,5.822073C4.4407742,5.8808389,4.3540995,5.9131269,4.264480799999999,5.9131207L2.1280167,5.9131207L2.1280167,10.086122L2.1280167,10.086502ZM1,10.84523L1,5.1547728C1,4.9452562,1.1683432599999999,4.7754087,1.37600556,4.7754087L3.9862361,4.7754087L9.403348,0.091403224C9.5148745,-0.0050983378,9.6718941,-0.027221045,9.805356,0.034763634C9.938817,0.096748315,10.0242682,0.2314845,10.0241337,0.37971979L10.0241337,15.62066C10.0241213,15.768828,9.9386129,15.903427,9.8051834,15.965316C9.6717529,16.027203,9.514823,16.005053,9.403348,15.908598L3.9937565,11.224594L1.37600556,11.224594C1.1683432599999999,11.224594,1,11.054747,1,10.84523Z" fill="#FFFFFF" fill-opacity="1" style="mix-blend-mode:passthrough"/></g></g></svg>