<svg xmlns="http://www.w3.org/2000/svg" xmlns:xlink="http://www.w3.org/1999/xlink" fill="none" version="1.1" width="32" height="32" viewBox="0 0 32 32"><defs><clipPath id="master_svg0_2_208"><rect x="0" y="0" width="32" height="32" rx="0"/></clipPath></defs><g clip-path="url(#master_svg0_2_208)"><g><path d="M22.656523,11.3000624C23.536967,12.716856499999999,24.002682999999998,14.3558302,23.99999,16.028073300000003C24.002625000000002,17.7295275,23.520353999999998,19.395872,22.610647999999998,20.828543C22.486150000000002,21.024755,22.213783,21.054631999999998,22.0504,20.889999L21.764637,20.601684C21.640304,20.47636,21.618600999999998,20.280862,21.712370999999997,20.130893L21.782308999999998,20.017083C22.497553,18.811802999999998,22.874232,17.432869,22.871972,16.028073300000003C22.871972,14.5993891,22.489950999999998,13.2602348,21.823292000000002,12.109624400000001C21.787177,12.047694700000001,21.750072,11.986356,21.711994,11.925632499999999C21.618426,11.7757483,21.640121999999998,11.5804839,21.764259,11.4552214L22.037615000000002,11.1794243C22.206908,11.0085514,22.489275,11.0387526,22.619296,11.2416401L22.656145000000002,11.3000617L22.656523,11.3000624ZM20.75243,13.3068967C21.158797,14.155365,21.369245,15.0857368,21.367950999999998,16.028073300000003C21.369323,17.012188899999998,21.139713,17.982644999999998,20.697909,18.860022999999998C20.588342,19.077714,20.299973,19.123867,20.129012,18.951073L19.827455999999998,18.646822999999998C19.714278,18.53277,19.685012,18.358954,19.754512,18.21359C19.777449,18.165791,19.796624,18.124439000000002,19.811664999999998,18.089917C20.094977,17.4401608,20.24084,16.7379246,20.239935,16.0280752C20.239935,15.3387709,20.104571999999997,14.681333500000001,19.86017,14.080800499999999C19.826608999999998,14.0005417,19.790874000000002,13.9212246,19.753009,13.842939399999999C19.683965,13.6976957,19.713363,13.5242972,19.826329,13.4104648L20.109085,13.125182599999999C20.289177000000002,12.943821,20.592081999999998,12.9915304,20.708815,13.219644500000001C20.725358,13.2511315,20.739646999999998,13.2803426,20.75243,13.3068967ZM10.1280167,18.086502L12.272376099999999,18.086502C12.3621721,18.086511,12.4490004,18.118943,12.5171561,18.17793L16.8961172,21.96967L16.8961172,10.0291934L12.5088842,13.822073C12.4407742,13.8808389,12.3540995,13.9131269,12.2644808,13.9131207L10.1280167,13.9131207L10.1280167,18.086122L10.1280167,18.086502ZM9,18.84523L9,13.1547728C9,12.9452562,9.16834326,12.7754087,9.37600556,12.7754087L11.9862361,12.7754087L17.403348,8.091403224C17.514874499999998,7.9949016622,17.6718941,7.972778955,17.805356,8.034763634C17.938817,8.096748315,18.0242682,8.2314845,18.0241337,8.37971979L18.0241337,23.62066C18.024121299999997,23.768828,17.938612900000003,23.903427,17.8051834,23.965316C17.6717529,24.027203,17.514823,24.005053,17.403348,23.908597999999998L11.9937565,19.224594L9.37600556,19.224594C9.16834326,19.224594,9,19.054747,9,18.84523Z" fill="#FFFFFF" fill-opacity="1" style="mix-blend-mode:passthrough"/></g></g></svg>